# xmcd
#
# Track frame offsets:
#	182
#	16565
#	35840
#	50862
#	66232
#	78090
#	91067
#	106042
#	117607
#	130250
#
# Disc length: 1902 seconds
#
# Revision: 1
# Processed by: cddbd v1.5.2PL0 Copyright (c) Steve Scherf et al.
# Submitted via: audiograbber 1.83.01
#
DISCID=7c076c0a
DTITLE=Tina Turner - Good Hearted Woman
DYEAR=1994
DGENRE=Pop
TTITLE0=Lay it down
TTITLE1=Lovin' him was easier
TTITLE2=Good hearted woman
TTITLE3=If this was our last time
TTITLE4=Stand by your man
TTITLE5=Freedom to stay
TTITLE6=We had it all
TTITLE7=Soul deep
TTITLE8=If it's alright with you
TTITLE9=You ain't woman enough to take my man
EXTD=
EXTT0=Thomas\n
EXTT1=Kristofferson\n
EXTT2=Jennings/Nelson\n
EXTT3=Frazier\n
EXTT4=Wynette/Sherill\n
EXTT5=Hoover\n
EXTT6=Seals/Fritts\n
EXTT7=Carson Thompson\n
EXTT8=O'Dell/Henley\n
EXTT9=Lynn\n
PLAYORDER=
